Patient5_TMGait_0pt45_1_right_10_EMG.mot
version=1
nRows=33
nColumns=33
inDegrees=no
endheader
time	1LAddLong	2LGlutMax	3LGlutMed	4LIliopsoas	5LSemiMemb	6LBicFemLong	7LRecFem	8LTensFascLat	9LVastMed	10LVasLat	11LGasMed	12lGasLat	13LTibAnt	14LPeroneusLong	15LSol	16LTibPost	17RAddLong	18RGlutMax	19RGlutMed	20RIliopsoas	21RSemiMemb	22RBicFemLong	23RRecFem	24RTensFascLat	25RVastMed	26RVasLat	27RGasMed	28RGasLat	29RTibAnt	30RPeroneusLong	31RSol	32RTibPost
16.92	0.003052	0.006409	-0.016632	-0.050201	0.004578	-0.01358	-0.003662	-0.058899	-0.007629	-0.008392	-0.005035	0.019684	0.007172	0.02121	-0.03891	-0.092316	-0.086365	-0.02182	-0.72861	0.15198	0.10132	0.17822	0.005035	0.075531	-0.010681	0.11276	-0.046539	-0.18509	-0.006866	0.007324	0.036011	0.010986
16.921	-0.016327	0.005951	-0.006866	-0.015106	-0.004425	-0.022583	-0.002899	-0.054779	-0.002899	-0.018005	-0.012054	0.016327	0.003052	0.014191	-0.054626	0.07843	-0.069885	-0.013123	-0.53909	0.10468	0.055695	0.022125	0.002594	0.028381	-0.003052	0.052795	-0.011902	-0.12466	-0.007324	0.005341	0.057526	0.003967
16.922	0.006409	0.008698	-0.016479	-0.008545	0.003967	-0.005951	0.000305	-0.057068	-0.012512	-0.007935	-0.009918	0.019531	0.005035	0.016632	-0.036163	-0.069733	-0.051727	-0.005646	-0.060577	0.15411	-0.089569	0.008392	-0.000458	-0.065155	0.006256	0.035858	-0.002899	-0.1471	-0.005035	0.00351	0.046082	-0.033112
16.923	0.026703	-0.003357	-0.029907	0.004425	0.003967	0.001831	0.003662	-0.055695	-0.013733	0.001526	-0.009308	0.020752	0.007019	0.017395	-0.028992	-0.04364	-0.022888	0.004425	0.28717	-0.056763	-0.10407	0.073547	-0.000916	0.007629	0.006714	0.007477	0.000763	-0.093079	-0.014648	-0.00061	0.031281	0.002747
16.924	0.003357	-0.000763	-0.024109	-0.006256	0.001068	-0.004272	0.002899	-0.026703	-0.005493	0.011902	-0.010834	0.018921	-0.001373	0.013885	-0.016174	0.047607	-0.00885	-0.007477	0.49332	-0.057983	-0.089722	0.075378	-0.004272	-0.097656	0.026703	-0.025482	0.013123	-0.054169	-0.032043	-0.000305	0.032654	0.055389
16.925	-0.088654	-0.005035	-0.015259	0.028534	-0.000458	-0.000763	0.000305	0.002441	-0.007172	0.019836	-0.014343	0.022125	0.005646	0.016022	-0.005341	-0.026398	0.000763	-0.007477	0.59204	-0.16892	-0.1828	0.071564	-0.005798	-0.20309	0.033569	-0.040588	0.020752	-0.023346	-0.040283	0.00351	0.024719	0.001526
16.926	-0.064697	-0.005646	-0.001526	0.031433	0.018005	-0.00885	0.000458	0.016937	-0.000458	0.038147	-0.007629	0.023804	-0.002899	0.017853	0.005341	-0.006714	0.012054	-0.015106	0.54199	0.017395	-0.16708	0.36362	-0.009918	-0.25955	0.094299	-0.010986	0.021973	0.020447	-0.046539	0.002289	0.005188	-0.00946
16.927	-0.039215	-0.00473	0.007629	0.027924	0.027161	-0.007324	-0.006561	0.036774	-0.002747	0.028992	-0.012817	0.023346	0.001831	0.018158	0.006714	-0.035248	-0.00061	-0.015106	0.12222	0.016937	-0.10712	0.5603	-0.005951	-0.19409	0.10651	0.08728	0.008392	0.066071	-0.046082	0.00946	-0.013428	0.084839
16.928	-0.10437	-0.000305	0.015564	0.015106	0.028839	-0.004578	-0.008087	0.054321	-0.000153	0.021973	-0.007019	0.023499	-0.001068	0.017395	-0.001373	-0.029602	0.014954	-0.018158	-0.54459	-0.007935	-0.017853	0.38635	-0.010834	-0.16357	0.21118	0.086212	-0.019226	0.050964	-0.040741	0.007019	-0.029755	-0.009918
16.929	-0.1442	0.002136	0.010986	0.009918	0.021515	-0.001068	-0.016937	0.063934	-0.002289	0.007935	-0.020294	0.027924	0.009003	0.020294	0.013275	0.11917	0.017853	-0.016174	-0.63492	0.003052	0.052032	0.31982	-0.013733	-0.23117	0.271	0.049286	-0.0177	0.002136	0.026855	-0.016022	0.029907	-0.057068
16.93	-0.12558	0.001068	0.027618	0.005035	0.019073	-0.008392	-0.033112	0.074921	-0.002136	0.001984	-0.02243	0.024414	0.010986	0.017242	0.005035	-0.1413	0.014954	-0.012207	-0.63583	-0.036469	0.13443	0.14481	-0.012665	-0.19745	0.25162	-0.008545	-0.00946	-0.049896	0.059052	-0.02243	0.03067	-0.011292
16.931	-0.10346	0.002899	0.019836	-0.012512	0.013885	-0.010071	-0.020294	0.064697	-0.002136	0.000305	-0.021515	0.016785	0.008545	0.013885	0.015717	0.051422	0.004883	-0.009766	-0.42023	0.093842	0.23224	-0.02243	-0.01297	0.017853	0.21912	-0.011444	-0.038452	-0.064545	0.028687	0.002747	0.029297	-0.007935
16.932	-0.046844	0.012512	0.03891	-0.003815	0.007629	-0.007629	-0.015717	0.035858	-0.000305	0.00061	-0.011292	0.012665	0.007172	0.010529	0.012817	0.055542	0.010986	0.000305	-0.2977	-0.12558	0.15366	-0.13428	-0.016479	0.30731	0.12482	-0.057068	-0.036316	-0.086975	-0.000153	-0.007324	0.03479	0.005646
16.933	-0.026093	0.007935	0.018921	-0.005188	0.010529	-0.010529	-0.016785	-0.016022	-0.009766	0.00061	-0.016632	0.013428	0.016327	0.010986	0.021667	-0.17731	0.014191	0.005798	-0.017548	-0.033112	0.067444	-0.12573	-0.020599	0.30731	0.065002	-0.044861	-0.036011	-0.0737	0.010071	-0.005493	0.030823	0.002136
16.934	0.005035	0.003204	0.024414	-0.005646	-0.003662	0.003204	-0.020294	-0.060425	-0.009918	0.00351	-0.019073	0.016632	-0.012207	0.010223	0.014496	-0.049896	0.017548	0.014496	-0.003815	-0.002899	-0.10422	-0.064087	-0.022125	0.21225	0.007782	-0.027313	-0.019836	-0.063629	0.012054	-0.007935	0.006714	0.011292
16.935	0.017853	0.003662	0.016937	-0.005188	0.003052	-0.015869	-0.014343	-0.079803	-0.00412	-0.001221	-0.015411	0.012665	-0.028381	0.007477	0.015106	-0.085907	0.00473	0.007782	-0.087433	0.14328	-0.13657	-0.11627	-0.022583	0.10666	-0.084076	-0.02533	0.00351	-0.026703	0.007019	-0.011749	-0.020142	0.024872
16.936	0.030823	0.007629	0.019226	0.024567	0.010223	-0.006714	-0.006866	-0.080261	-0.012207	-0.003357	-0.014801	0.012054	-0.055695	0.009613	0.019836	-0.14755	0.000153	0.012512	-0.12863	0.16571	-0.13473	-0.18677	-0.018768	0.073395	-0.13306	-0.12512	0.022125	0.00351	-0.001678	-0.009918	-0.007935	0.008545
16.937	-0.009003	0.006104	0.019836	-0.044708	0.019684	-0.008545	-0.007935	-0.08316	-0.005493	0.001831	-0.00351	0.00946	-0.067139	0.012512	0.017395	0.16022	0.000916	0.021973	0.035248	0.044708	-0.15595	-0.18143	-0.011292	0.074921	-0.16632	-0.13473	0.027161	0.010529	0.005188	-0.008392	0.002594	-0.015106
16.938	-0.009613	0.010529	-0.002899	-0.035553	0.014801	-0.010071	0.000458	-0.083923	-0.007935	0.007629	-0.00885	0.014496	-0.05249	0.010223	0.02243	0.038147	-0.028687	0.025177	0.20431	-0.15549	0.037384	-0.076447	-0.000763	0.07431	-0.21515	-0.036011	0.036621	0.003815	0.000153	-0.013123	0.009918	-0.083923
16.939	-0.19394	0.006409	-0.000916	0.021362	0.022583	-0.021667	-0.001526	-0.074005	-0.016479	0.002747	-0.01709	0.013275	-0.05188	0.01358	0.003815	0.011292	-0.027466	0.019531	0.13534	-0.029907	0.072174	-0.17777	-0.002747	0.07843	-0.27679	0.03418	0.007324	-0.024719	0.008698	-0.012054	0.000916	-0.02533
16.94	-0.022736	0.00473	-0.015869	0.032654	0.018158	-0.019989	0.000763	-0.059052	-0.014038	0	-0.019379	0.01297	-0.001678	0.01236	0.019684	0.12237	-0.028229	0.001678	0.1062	0.12039	0.093231	-0.18112	-0.001984	0.10361	-0.32059	-0.006866	-0.000153	-0.058899	0.004883	-0.024719	0.010681	0.028687
16.941	0.012817	0.003815	-0.02594	0.036621	0.030823	-0.021667	0.001068	-0.046844	-0.005188	0.003967	-0.018921	0.015717	0.012817	0.013275	0.020905	0.027161	-0.015717	-0.00824	0.14465	0.025787	0.21439	-0.067596	-0.00351	0.037689	-0.26443	-0.048065	0.00061	-0.047913	0.004883	-0.018311	0.005951	0.011139
16.942	0.012207	0.003815	-0.019989	0.019379	0.032654	-0.029907	0.011597	-0.050354	-0.005188	0.001068	-0.018616	0.007935	0.053711	0.005951	0.018158	0.055389	0	-0.021667	0.032654	-0.079803	0.22614	-0.19409	-0.010834	0.055542	-0.17059	-0.065613	-0.016785	-0.029144	0.003204	-0.015717	0.005951	-0.004578
16.943	0.028076	0.001984	-0.027008	0.017548	0.055695	-0.024567	0.010223	-0.071869	-0.007324	0.004883	-0.013275	0.003967	0.058136	0.003815	0.030518	-0.005188	0	-0.026855	0.15228	-0.10986	0.27298	-0.13016	-0.009613	-0.040283	-0.054321	-0.10605	-0.025024	-0.024414	0.001221	-0.015259	0.014496	-0.007782
16.944	0.047913	0.00351	-0.019531	-0.011902	0.051422	-0.011444	0.005493	-0.077515	-0.012054	0.003815	-0.011749	0.001526	0.031128	-0.000305	0.022278	-0.12222	0.00061	-0.036316	0.27985	0.10666	0.24628	0.10529	0.002594	-0.063019	-0.011444	-0.13519	0.00412	-0.028839	-0.005798	-0.016327	0.010681	0.021973
16.945	0.080414	-0.004883	-0.012817	0.055237	0.053711	-0.010834	0.00885	-0.079346	-0.016174	0.003204	-0.014801	0.007935	0.030365	0.002441	0.017548	-0.42435	0.013885	-0.041656	0.14313	-0.051117	0.25879	0.15305	-0.005646	-0.039673	0.014496	-0.18967	0.010681	-0.041046	-0.005646	-0.01709	0.018768	0.025024
16.946	0.12466	-0.003204	-0.009613	0.033569	0.049744	-0.023346	0.006714	-0.061646	-0.013428	0.00885	-0.017548	0.019989	0.04303	0.011292	0.010834	0.06134	0.013733	-0.048828	-0.28046	-0.17502	-0.06073	0.26657	-0.005646	-0.011902	0.038757	-0.14801	0.024567	-0.046692	-0.005646	-0.0177	0.007172	0.031433
16.947	0.089874	-0.000153	-0.014343	0.029449	0.059357	-0.025482	0.006561	-0.054779	-0.007019	0.006714	-0.027924	0.019226	0.028381	0.018005	0.014954	0.20035	0.018616	-0.052948	-0.32379	-1.1609	-0.3862	0.37705	-0.005035	0.007324	0.049133	-0.16953	0.022888	-0.031586	0.002594	-0.019836	0.006409	0.24902
16.948	0.11444	0.00412	-0.004883	0.010223	0.054779	-0.016174	0.001221	-0.065308	-0.016022	0.01358	-0.025024	0.014038	0.017242	0.021362	0.014496	0.22049	0.04303	-0.053406	-0.28046	-0.86212	-0.19257	0.29678	-0.012512	0.001068	0.055542	-0.18066	0.057373	-0.004272	-0.00824	-0.019379	0.056458	0.2269
16.949	0.1471	0.004425	0.008392	-0.009918	0.047455	-0.011902	-0.000916	-0.078735	-0.015564	0.012665	-0.023499	0.010223	0.018005	0.012817	0.007324	0.099182	0.02655	-0.043793	-0.36118	-1.1087	-0.23331	0.15823	-0.022125	0.03952	0.021057	-0.054321	0.055542	0.04303	-0.001373	-0.019836	0.062561	-0.18127
16.95	0.15167	0.000916	0.003815	-0.009155	0.046387	-0.015411	0.007477	-0.099792	-0.012817	0.011597	-0.022278	0.017548	0.017853	0.017242	0.007935	-0.005493	0.028229	-0.028534	-0.48202	0.4892	-0.27161	-0.072327	-0.013733	0.080719	-0.037689	0.12756	0.009613	0.10681	-0.001068	-0.016479	0.041351	-0.27954
16.951	0.1178	0.000458	0.006866	0.005646	0.035095	-0.019379	0.013123	-0.11017	-0.007477	0.002441	-0.016479	0.006256	0.035553	0.012512	0.011749	0.019989	0.032959	-0.014343	-0.39154	3.5191	-0.23148	-0.13809	-0.019989	0.018158	-0.07309	0.19592	-0.041962	0.0737	-0.003357	-0.018311	0.014496	-0.12588
16.952	0.058136	-0.00351	-0.020447	0.019836	0.024567	-0.013885	0.011597	-0.11047	-0.003967	0.002441	-0.005646	0.011597	0.072937	0.007629	0.02182	0.04837	0.026855	-0.011139	-0.20844	2.8667	-0.07431	-0.14297	-0.020599	-0.050812	-0.11643	0.15228	-0.013733	0.020905	-0.001831	-0.020752	0.01297	-0.036926
